# xmcd
#
# Track frame offsets:
#	150
#	13784
#	28108
#	39905
#	52769
#	66300
#	80077
#	93173
#	106868
#	120328
#	133347
#	147499
#	162334
#	177226
#	192641
#	207570
#	220487
#	234793
#	249448
#	263098
#
# Disc length: 3686 seconds
#
# Revision: 5
# Processed by: cddbd v1.5.2PL0 Copyright (c) Steve Scherf et al.
# Submitted via: EasyCDDAExtractor 16.0.0.1
#
DISCID=1e0e6414
DTITLE=Various Artist - Memphis Masters_Early American Blues Classics 1927-34
DYEAR=1900
DGENRE=Blues
TTITLE0=Will Batts - Country Woman
TTITLE1=Tom Dickson - Death Bell Blues
TTITLE2=Furry Lewis - Billy Lyons and Stackolee
TTITLE3=Joe McCoy - Pile Driver Blues
TTITLE4=Frank Stokes - I'm Going Away Blues
TTITLE5=Pearl Dickson - Little Rock Blues
TTITLE6=Jed Davenport - Beale St. Breakdown
TTITLE7=Memphis Minnie - Where's My Good Man At?
TTITLE8=South Memphis Jug Band - Doctor Medicine
TTITLE9=Gus Cannon - Poor Boy A Long Way From Home
TTITLE10=Jack Kelly - Red Ripe Tomatoes
TTITLE11=Frank Stokes - Downtown Blues
TTITLE12=Cannon's Jug Stompers - Last Chance Blues
TTITLE13=Will Shade - Better Leave That Stuff Alone
TTITLE14=Hattie Hart - Won't You Be Kind
TTITLE15=Will Batts - Cadillac Baby
TTITLE16=Memphis Jug Band - Bob Lee Junior Blues
TTITLE17=Mooch Richardson - T and T Blues
TTITLE18=Hattie Hart - I Let My Daddy Do That
TTITLE19=Frank Stokes - Old Sometime Blues
EXTD=
EXTT0=Will Batts\n
EXTT1=Tom Dickson\n
EXTT2=Furry Lewis\n
EXTT3=Joe McCoy\n
EXTT4=Frank Stokes\n
EXTT5=Pearl Dickson\n
EXTT6=Jed Davenport\n
EXTT7=Memphis Minnie\n
EXTT8=South Memphis Jug Band\n
EXTT9=Gus Cannon\n
EXTT10=Jack Kelly\n
EXTT11=Frank Stokes\n
EXTT12=Cannon's Jug Stompers\n
EXTT13=Will Shade\n
EXTT14=Hattie Hart\n
EXTT15=Will Batts\n
EXTT16=Memphis Jug Band\n
EXTT17=Mooch Richardson\n
EXTT18=Hattie Hart\n
EXTT19=Frank Stokes\n
PLAYORDER=
